<?xml version="1.0" encoding="UTF-8" standalone="no"?>
<svg
   width="24"
   height="24"
   viewBox="0 0 24 24"
   version="1.1"
   id="svg1"
   sodipodi:docname="micyou.svg"
   xmlns:inkscape="http://www.inkscape.org/namespaces/inkscape"
   xmlns:sodipodi="http://sodipodi.sourceforge.net/DTD/sodipodi-0.dtd"
   xmlns="http://www.w3.org/2000/svg"
   xmlns:svg="http://www.w3.org/2000/svg">
  <rect
     width="24"
     height="24"
     x="0"
     y="0"
     rx="4"
     ry="4"
     fill="#334254" />
  <path
     fill="#ffffff"
     d="m 10.784525,12.429524 q -0.500512,-0.500512 -0.500512,-1.21553 V 7.7819072 q 0,-0.715018 0.500512,-1.2155306 0.500513,-0.5005126 1.215531,-0.5005126 0.715018,0 1.215531,0.5005126 0.500512,0.5005126 0.500512,1.2155306 v 3.4320868 q 0,0.715018 -0.500512,1.21553 -0.500513,0.500513 -1.215531,0.500513 -0.715018,0 -1.215531,-0.500513 m 0.643517,3.932599 v -1.18693 Q 10.112409,14.989289 9.176021,14.059765 8.2396334,13.130242 8.0388563,11.800308 q -0.028601,-0.243106 0.1287033,-0.41471 0.1573039,-0.171604 0.4004101,-0.171604 0.2431061,0 0.4078462,0.16474 0.1647402,0.16474 0.2213696,0.407274 0.200205,1.001025 0.9941615,1.644541 0.793955,0.643517 1.808709,0.643517 1.029626,0 1.816146,-0.650381 0.78652,-0.65038 0.986725,-1.637677 0.0572,-0.243106 0.221941,-0.407274 0.16474,-0.164168 0.407274,-0.16474 0.242535,-5.72e-4 0.40041,0.171604 0.157876,0.172176 0.128704,0.41471 -0.200205,1.301333 -1.129729,2.245157 -0.929523,0.943824 -2.259457,1.129728 v 1.18693 q 0,0.243106 -0.16474,0.407846 -0.16474,0.164741 -0.407274,0.164168 -0.242534,-5.72e-4 -0.407274,-0.16474 -0.16474,-0.164168 -0.16474,-0.407274 m 0.97986,-4.740283 Q 12.57207,11.4571 12.57207,11.213994 V 7.7819072 q 0,-0.2431061 -0.16474,-0.4072743 -0.16474,-0.1641681 -0.407274,-0.1647401 -0.242534,-5.72e-4 -0.407274,0.1647401 -0.16474,0.1653122 -0.16474,0.4072743 v 3.4320868 q 0,0.243106 0.16474,0.407846 0.16474,0.16474 0.407274,0.164168 0.242534,-5.72e-4 0.407846,-0.16474"
     id="path1" />
</svg>